<svg xmlns="http://www.w3.org/2000/svg" xmlns:xlink="http://www.w3.org/1999/xlink" width="350" zoomAndPan="magnify" viewBox="0 0 262.5 65.249999" height="87" preserveAspectRatio="xMidYMid meet" version="1.0"><defs><g/><clipPath id="bc336040c3"><path d="M 1.246094 0.152344 L 65.441406 0.152344 L 65.441406 64.347656 L 1.246094 64.347656 Z M 1.246094 0.152344 " clip-rule="nonzero"/></clipPath><clipPath id="8ce2a1b49a"><path d="M 33.34375 0.152344 C 15.613281 0.152344 1.246094 14.523438 1.246094 32.25 C 1.246094 49.980469 15.613281 64.347656 33.34375 64.347656 C 51.070312 64.347656 65.441406 49.980469 65.441406 32.25 C 65.441406 14.523438 51.070312 0.152344 33.34375 0.152344 Z M 33.34375 0.152344 " clip-rule="nonzero"/></clipPath><clipPath id="14a38fc4a7"><path d="M 7.777344 6.6875 L 58.914062 6.6875 L 58.914062 57.824219 L 7.777344 57.824219 Z M 7.777344 6.6875 " clip-rule="nonzero"/></clipPath><clipPath id="4b1ebb1327"><path d="M 33.34375 6.6875 C 19.222656 6.6875 7.777344 18.132812 7.777344 32.253906 C 7.777344 46.375 19.222656 57.824219 33.34375 57.824219 C 47.464844 57.824219 58.914062 46.375 58.914062 32.253906 C 58.914062 18.132812 47.464844 6.6875 33.34375 6.6875 Z M 33.34375 6.6875 " clip-rule="nonzero"/></clipPath></defs><g clip-path="url(#bc336040c3)"><g clip-path="url(#8ce2a1b49a)"><path stroke-linecap="butt" transform="matrix(0.741477, 0, 0, 0.741477, 1.24432, 0.153634)" fill="none" stroke-linejoin="miter" d="M 43.291188 -0.00173954 C 19.37883 -0.00173954 0.00239195 19.379967 0.00239195 43.287056 C 0.00239195 67.199414 19.37883 86.575852 43.291188 86.575852 C 67.198277 86.575852 86.579983 67.199414 86.579983 43.287056 C 86.579983 19.379967 67.198277 -0.00173954 43.291188 -0.00173954 Z M 43.291188 -0.00173954 " stroke="#f9f5f2" stroke-width="4" stroke-opacity="1" stroke-miterlimit="4"/></g></g><g clip-path="url(#14a38fc4a7)"><g clip-path="url(#4b1ebb1327)"><path fill="#f9f5f2" d="M 7.777344 6.6875 L 58.914062 6.6875 L 58.914062 57.824219 L 7.777344 57.824219 Z M 7.777344 6.6875 " fill-opacity="1" fill-rule="nonzero"/></g></g><g fill="#2a2829" fill-opacity="1"><g transform="translate(21.925595, 38.391449)"><g><path d="M 1.296875 -0.234375 C 1.703125 -0.234375 2.050781 -0.378906 2.34375 -0.671875 C 2.632812 -0.960938 2.789062 -1.3125 2.8125 -1.71875 L 2.8125 -14.8125 C 2.789062 -15.375 2.53125 -15.796875 2.03125 -16.078125 C 1.8125 -16.203125 1.566406 -16.265625 1.296875 -16.265625 L 0.984375 -16.265625 L 0.984375 -16.5 L 8.15625 -16.5 L 8.140625 -16.265625 L 7.84375 -16.265625 C 7.28125 -16.265625 6.851562 -16.019531 6.5625 -15.53125 C 6.414062 -15.3125 6.34375 -15.070312 6.34375 -14.8125 L 6.34375 -1.71875 C 6.34375 -1.3125 6.488281 -0.960938 6.78125 -0.671875 C 7.082031 -0.378906 7.4375 -0.234375 7.84375 -0.234375 L 8.140625 -0.234375 L 8.15625 0 L 0.984375 0 L 0.984375 -0.234375 Z M 18.3125 0 L 16.390625 0 C 13.992188 0 12.300781 -0.648438 11.3125 -1.953125 C 8.5 -5.773438 7.09375 -7.71875 7.09375 -7.78125 L 12.6875 -15.1875 C 12.8125 -15.34375 12.875 -15.484375 12.875 -15.609375 C 12.875 -15.734375 12.847656 -15.84375 12.796875 -15.9375 C 12.671875 -16.175781 12.453125 -16.296875 12.140625 -16.296875 L 11.90625 -16.296875 L 11.90625 -16.5 L 17.3125 -16.5 L 17.3125 -16.296875 L 17.21875 -16.296875 C 16.15625 -16.296875 15.296875 -15.914062 14.640625 -15.15625 L 10.046875 -9.71875 L 15.921875 -1.703125 C 16.640625 -0.753906 17.4375 -0.265625 18.3125 -0.234375 Z M 18.3125 0 "/></g></g></g><g fill="#2a2829" fill-opacity="1"><g transform="translate(39.774515, 38.391449)"><g><path d="M 0.828125 -7.0625 C 0.828125 -9.332031 1.582031 -11.128906 3.09375 -12.453125 C 4.613281 -13.785156 6.632812 -14.453125 9.15625 -14.453125 C 11.675781 -14.453125 13.695312 -13.785156 15.21875 -12.453125 C 16.75 -11.128906 17.515625 -9.332031 17.515625 -7.0625 C 17.515625 -4.800781 16.75 -3.003906 15.21875 -1.671875 C 13.695312 -0.347656 11.679688 0.3125 9.171875 0.3125 C 6.660156 0.3125 4.640625 -0.347656 3.109375 -1.671875 C 1.585938 -3.003906 0.828125 -4.800781 0.828125 -7.0625 Z M 4.4375 -7.078125 C 4.4375 -5.097656 4.863281 -3.53125 5.71875 -2.375 C 6.570312 -1.21875 7.71875 -0.640625 9.15625 -0.640625 C 10.59375 -0.640625 11.738281 -1.21875 12.59375 -2.375 C 13.457031 -3.53125 13.890625 -5.097656 13.890625 -7.078125 C 13.890625 -9.054688 13.457031 -10.625 12.59375 -11.78125 C 11.738281 -12.9375 10.59375 -13.515625 9.15625 -13.515625 C 7.71875 -13.515625 6.570312 -12.9375 5.71875 -11.78125 C 4.863281 -10.625 4.4375 -9.054688 4.4375 -7.078125 Z M 4.4375 -7.078125 "/></g></g></g><g fill="#2a2829" fill-opacity="1"><g transform="translate(58.095003, 38.391449)"><g><path d="M 9.296875 0.3125 C 6.648438 0.289062 4.570312 -0.363281 3.0625 -1.65625 C 1.550781 -2.957031 0.796875 -4.765625 0.796875 -7.078125 C 0.796875 -9.390625 1.546875 -11.195312 3.046875 -12.5 C 4.554688 -13.800781 6.640625 -14.453125 9.296875 -14.453125 C 11.367188 -14.453125 13.132812 -14.09375 14.59375 -13.375 L 14.59375 -9.625 L 14.4375 -9.625 C 14.039062 -11.019531 13.429688 -12.015625 12.609375 -12.609375 C 11.796875 -13.210938 10.769531 -13.515625 9.53125 -13.515625 C 7.863281 -13.515625 6.585938 -12.941406 5.703125 -11.796875 C 4.828125 -10.660156 4.390625 -9.101562 4.390625 -7.125 C 4.390625 -5.15625 4.820312 -3.585938 5.6875 -2.421875 C 6.582031 -1.234375 7.800781 -0.640625 9.34375 -0.640625 C 10.457031 -0.640625 11.375 -0.8125 12.09375 -1.15625 C 12.820312 -1.5 13.394531 -2.050781 13.8125 -2.8125 C 14.238281 -3.582031 14.554688 -4.617188 14.765625 -5.921875 L 14.921875 -5.921875 L 15.203125 -2.359375 C 14.722656 -1.554688 13.984375 -0.910156 12.984375 -0.421875 C 11.984375 0.0664062 10.753906 0.3125 9.296875 0.3125 Z M 9.296875 0.3125 "/></g></g></g><g fill="#2a2829" fill-opacity="1"><g transform="translate(74.175542, 38.391449)"><g><path d="M 16.640625 -0.234375 L 16.90625 -0.234375 L 16.90625 0 L 10.421875 0 L 10.421875 -0.234375 L 10.65625 -0.234375 C 11.019531 -0.234375 11.328125 -0.347656 11.578125 -0.578125 C 11.828125 -0.816406 11.953125 -1.117188 11.953125 -1.484375 L 11.953125 -6.578125 L 5.75 -6.578125 L 5.75 -1.484375 C 5.769531 -1.117188 5.90625 -0.816406 6.15625 -0.578125 C 6.40625 -0.347656 6.703125 -0.234375 7.046875 -0.234375 L 7.3125 -0.234375 L 7.3125 0 L 0.796875 0 L 0.796875 -0.234375 L 1.0625 -0.234375 C 1.425781 -0.234375 1.734375 -0.351562 1.984375 -0.59375 C 2.234375 -0.84375 2.359375 -1.140625 2.359375 -1.484375 L 2.359375 -12.65625 C 2.359375 -13.007812 2.234375 -13.304688 1.984375 -13.546875 C 1.734375 -13.785156 1.425781 -13.90625 1.0625 -13.90625 L 0.796875 -13.90625 L 0.796875 -14.140625 L 7.3125 -14.140625 L 7.3125 -13.90625 L 7.046875 -13.90625 C 6.703125 -13.90625 6.40625 -13.785156 6.15625 -13.546875 C 5.90625 -13.316406 5.769531 -13.03125 5.75 -12.6875 L 5.75 -7.515625 L 11.953125 -7.515625 L 11.953125 -12.65625 C 11.953125 -13.144531 11.738281 -13.507812 11.3125 -13.75 C 11.113281 -13.851562 10.894531 -13.90625 10.65625 -13.90625 L 10.421875 -13.90625 L 10.421875 -14.140625 L 16.90625 -14.140625 L 16.90625 -13.90625 L 16.640625 -13.90625 C 16.296875 -13.90625 16 -13.785156 15.75 -13.546875 C 15.5 -13.316406 15.363281 -13.019531 15.34375 -12.65625 L 15.34375 -1.46875 C 15.363281 -0.976562 15.578125 -0.625 15.984375 -0.40625 C 16.191406 -0.289062 16.410156 -0.234375 16.640625 -0.234375 Z M 16.640625 -0.234375 "/></g></g></g><g fill="#2a2829" fill-opacity="1"><g transform="translate(91.859413, 38.391449)"><g><path d="M 15.703125 -0.234375 L 15.90625 -0.234375 L 15.90625 0 L 8.96875 0 L 8.96875 -0.234375 L 9.15625 -0.234375 C 9.46875 -0.234375 9.691406 -0.328125 9.828125 -0.515625 C 9.972656 -0.703125 10.046875 -0.875 10.046875 -1.03125 C 10.046875 -1.1875 10.015625 -1.351562 9.953125 -1.53125 L 9.03125 -3.703125 L 4.046875 -3.703125 L 3.09375 -1.515625 C 3.03125 -1.347656 3 -1.179688 3 -1.015625 C 3 -0.859375 3.070312 -0.6875 3.21875 -0.5 C 3.375 -0.320312 3.609375 -0.234375 3.921875 -0.234375 L 4.109375 -0.234375 L 4.109375 0 L -0.609375 0 L -0.609375 -0.234375 L -0.421875 -0.234375 C -0.0859375 -0.234375 0.238281 -0.332031 0.5625 -0.53125 C 0.894531 -0.738281 1.164062 -1.050781 1.375 -1.46875 L 6.25 -11.9375 C 6.945312 -13.488281 7.3125 -14.445312 7.34375 -14.8125 L 7.546875 -14.8125 L 13.875 -1.5625 C 14.070312 -1.101562 14.335938 -0.765625 14.671875 -0.546875 C 15.015625 -0.335938 15.359375 -0.234375 15.703125 -0.234375 Z M 4.4375 -4.625 L 8.640625 -4.625 L 6.5625 -9.546875 Z M 4.4375 -4.625 "/></g></g></g><g fill="#2a2829" fill-opacity="1"><g transform="translate(107.043969, 38.391449)"><g><path d="M 11.265625 -14.140625 L 17.890625 -14.140625 L 17.890625 -13.90625 L 17.5 -13.90625 C 17.132812 -13.90625 16.828125 -13.796875 16.578125 -13.578125 C 16.335938 -13.359375 16.210938 -13.078125 16.203125 -12.734375 L 16.203125 -2.421875 C 16.203125 -1.453125 16.265625 -0.65625 16.390625 -0.03125 L 16.4375 0.3125 L 16.21875 0.3125 L 5.40625 -9.25 L 5.40625 -1.4375 C 5.414062 -1.09375 5.539062 -0.804688 5.78125 -0.578125 C 6.03125 -0.347656 6.335938 -0.234375 6.703125 -0.234375 L 7.09375 -0.234375 L 7.09375 0 L 0.5 0 L 0.5 -0.234375 L 0.875 -0.234375 C 1.238281 -0.234375 1.546875 -0.347656 1.796875 -0.578125 C 2.046875 -0.804688 2.171875 -1.09375 2.171875 -1.4375 L 2.171875 -11.8125 C 2.171875 -12.757812 2.109375 -13.535156 1.984375 -14.140625 L 1.9375 -14.484375 L 2.140625 -14.453125 L 12.9375 -4.953125 L 12.9375 -12.703125 C 12.9375 -13.054688 12.816406 -13.34375 12.578125 -13.5625 C 12.335938 -13.789062 12.035156 -13.90625 11.671875 -13.90625 L 11.265625 -13.90625 Z M 11.265625 -14.140625 "/></g></g></g><g fill="#2a2829" fill-opacity="1"><g transform="translate(125.411621, 38.391449)"><g><path d="M 15.703125 -0.234375 L 15.90625 -0.234375 L 15.90625 0 L 8.96875 0 L 8.96875 -0.234375 L 9.15625 -0.234375 C 9.46875 -0.234375 9.691406 -0.328125 9.828125 -0.515625 C 9.972656 -0.703125 10.046875 -0.875 10.046875 -1.03125 C 10.046875 -1.1875 10.015625 -1.351562 9.953125 -1.53125 L 9.03125 -3.703125 L 4.046875 -3.703125 L 3.09375 -1.515625 C 3.03125 -1.347656 3 -1.179688 3 -1.015625 C 3 -0.859375 3.070312 -0.6875 3.21875 -0.5 C 3.375 -0.320312 3.609375 -0.234375 3.921875 -0.234375 L 4.109375 -0.234375 L 4.109375 0 L -0.609375 0 L -0.609375 -0.234375 L -0.421875 -0.234375 C -0.0859375 -0.234375 0.238281 -0.332031 0.5625 -0.53125 C 0.894531 -0.738281 1.164062 -1.050781 1.375 -1.46875 L 6.25 -11.9375 C 6.945312 -13.488281 7.3125 -14.445312 7.34375 -14.8125 L 7.546875 -14.8125 L 13.875 -1.5625 C 14.070312 -1.101562 14.335938 -0.765625 14.671875 -0.546875 C 15.015625 -0.335938 15.359375 -0.234375 15.703125 -0.234375 Z M 4.4375 -4.625 L 8.640625 -4.625 L 6.5625 -9.546875 Z M 4.4375 -4.625 "/></g></g></g><g fill="#2a2829" fill-opacity="1"><g transform="translate(140.596177, 38.391449)"><g/></g></g><g fill="#2a2829" fill-opacity="1"><g transform="translate(146.490801, 38.391449)"><g><path d="M 7.5 -15.46875 L 6.484375 -15.46875 C 6.453125 -15.46875 6.425781 -15.46875 6.40625 -15.46875 L 6.40625 -1.71875 C 6.425781 -1.3125 6.582031 -0.960938 6.875 -0.671875 C 7.164062 -0.378906 7.515625 -0.234375 7.921875 -0.234375 L 8.234375 -0.234375 L 8.234375 0 L 1.0625 0 L 1.0625 -0.234375 L 1.375 -0.234375 C 1.9375 -0.234375 2.367188 -0.476562 2.671875 -0.96875 C 2.796875 -1.1875 2.863281 -1.429688 2.875 -1.703125 L 2.875 -14.78125 C 2.863281 -15.1875 2.710938 -15.535156 2.421875 -15.828125 C 2.128906 -16.117188 1.78125 -16.265625 1.375 -16.265625 L 1.0625 -16.265625 L 1.0625 -16.5 L 9.140625 -16.5 C 10.671875 -16.5 11.960938 -16.171875 13.015625 -15.515625 C 13.546875 -15.179688 13.96875 -14.71875 14.28125 -14.125 C 14.601562 -13.539062 14.765625 -12.769531 14.765625 -11.8125 C 14.765625 -10.863281 14.429688 -9.945312 13.765625 -9.0625 C 13.109375 -8.1875 12.148438 -7.6875 10.890625 -7.5625 C 11.804688 -7.269531 12.609375 -6.582031 13.296875 -5.5 C 14.992188 -2.78125 16.253906 -1.160156 17.078125 -0.640625 C 17.484375 -0.390625 17.992188 -0.253906 18.609375 -0.234375 L 18.609375 0 L 16.296875 0 C 14.921875 0 13.78125 -0.175781 12.875 -0.53125 C 11.976562 -0.894531 11.269531 -1.535156 10.75 -2.453125 C 10.445312 -2.972656 9.796875 -4.316406 8.796875 -6.484375 C 8.359375 -7.441406 7.820312 -7.96875 7.1875 -8.0625 L 7.1875 -8.296875 L 7.921875 -8.296875 C 8.628906 -8.296875 9.253906 -8.507812 9.796875 -8.9375 C 10.335938 -9.363281 10.703125 -10.054688 10.890625 -11.015625 C 10.953125 -11.335938 10.984375 -11.597656 10.984375 -11.796875 C 10.984375 -13.078125 10.722656 -14.003906 10.203125 -14.578125 C 9.691406 -15.148438 9.023438 -15.445312 8.203125 -15.46875 C 8.046875 -15.46875 7.8125 -15.46875 7.5 -15.46875 Z M 7.5 -15.46875 "/></g></g></g><g fill="#2a2829" fill-opacity="1"><g transform="translate(164.103941, 38.391449)"><g><path d="M 0.828125 0 L 0.828125 -0.1875 L 8.578125 -13.234375 L 3.53125 -13.234375 C 2.851562 -13.210938 2.328125 -13.003906 1.953125 -12.609375 C 1.578125 -12.222656 1.390625 -11.679688 1.390625 -10.984375 L 1.390625 -10.796875 L 1.15625 -10.796875 L 1.15625 -14.53125 C 1.34375 -14.445312 1.707031 -14.363281 2.25 -14.28125 C 2.789062 -14.207031 3.28125 -14.171875 3.71875 -14.171875 L 10.65625 -14.171875 C 11.113281 -14.171875 11.597656 -14.203125 12.109375 -14.265625 C 12.617188 -14.328125 12.941406 -14.390625 13.078125 -14.453125 L 13.078125 -14.265625 L 5.421875 -0.921875 L 9.5 -0.921875 C 11.59375 -0.953125 13 -2.09375 13.71875 -4.34375 L 13.984375 -4.34375 L 12.9375 0 Z M 0.828125 0 "/></g></g></g><g fill="#2a2829" fill-opacity="1"><g transform="translate(178.392513, 38.391449)"><g><path d="M 9.53125 1.625 C 9.53125 2.15625 9.679688 2.566406 9.984375 2.859375 C 10.296875 3.148438 10.660156 3.296875 11.078125 3.296875 C 11.492188 3.296875 11.898438 3.125 12.296875 2.78125 L 12.4375 2.921875 C 12.3125 3.804688 11.820312 4.363281 10.96875 4.59375 C 10.71875 4.65625 10.472656 4.6875 10.234375 4.6875 C 9.691406 4.6875 9.160156 4.484375 8.640625 4.078125 C 8.117188 3.679688 7.859375 3.113281 7.859375 2.375 C 7.859375 1.75 8.019531 1.265625 8.34375 0.921875 C 8.664062 0.578125 9.023438 0.300781 9.421875 0.09375 C 9.921875 -0.15625 10.171875 -0.453125 10.171875 -0.796875 C 10.171875 -1.003906 10.113281 -1.28125 10 -1.625 L 9.078125 -3.765625 L 4.046875 -3.765625 L 3.046875 -1.53125 C 2.984375 -1.351562 2.953125 -1.179688 2.953125 -1.015625 C 2.953125 -0.859375 3.023438 -0.6875 3.171875 -0.5 C 3.328125 -0.320312 3.550781 -0.234375 3.84375 -0.234375 L 4.046875 -0.234375 L 4.046875 0 L -0.53125 0 L -0.53125 -0.234375 L -0.34375 -0.234375 C 0 -0.234375 0.332031 -0.332031 0.65625 -0.53125 C 0.976562 -0.738281 1.25 -1.054688 1.46875 -1.484375 L 6.28125 -11.8125 C 6.957031 -13.320312 7.316406 -14.265625 7.359375 -14.640625 L 7.546875 -14.640625 L 13.828125 -1.46875 C 14.046875 -1.019531 14.351562 -0.691406 14.75 -0.484375 C 15.15625 -0.285156 15.472656 -0.1875 15.703125 -0.1875 L 15.703125 0.046875 L 13.015625 -0.078125 C 12.109375 -0.078125 11.410156 -0.0195312 10.921875 0.09375 C 9.992188 0.3125 9.53125 0.820312 9.53125 1.625 Z M 4.4375 -4.6875 L 8.703125 -4.6875 L 6.609375 -9.6875 Z M 4.4375 -4.6875 "/></g></g></g><g fill="#2a2829" fill-opacity="1"><g transform="translate(193.294126, 38.391449)"><g><path d="M 14.6875 -12.265625 C 16.113281 -11.015625 16.828125 -9.28125 16.828125 -7.0625 C 16.828125 -4.851562 16.113281 -3.125 14.6875 -1.875 C 13.257812 -0.625 11.28125 0 8.75 0 L 0.78125 0 L 0.78125 -0.234375 L 1.078125 -0.234375 C 1.441406 -0.234375 1.75 -0.359375 2 -0.609375 C 2.25 -0.859375 2.382812 -1.160156 2.40625 -1.515625 L 2.40625 -12.6875 C 2.375 -13.03125 2.234375 -13.316406 1.984375 -13.546875 C 1.734375 -13.785156 1.425781 -13.90625 1.0625 -13.90625 L 0.78125 -13.90625 L 0.78125 -14.140625 L 8.75 -14.140625 C 11.28125 -14.140625 13.257812 -13.515625 14.6875 -12.265625 Z M 8.46875 -0.9375 C 9.945312 -0.9375 11.113281 -1.476562 11.96875 -2.5625 C 12.820312 -3.65625 13.25 -5.160156 13.25 -7.078125 C 13.25 -8.992188 12.820312 -10.5 11.96875 -11.59375 C 11.113281 -12.6875 9.945312 -13.234375 8.46875 -13.234375 L 5.796875 -13.234375 L 5.796875 -0.9375 Z M 8.46875 -0.9375 "/></g></g></g><g fill="#2a2829" fill-opacity="1"><g transform="translate(210.930843, 38.391449)"><g><path d="M 0.828125 0 L 0.828125 -0.1875 L 8.578125 -13.234375 L 3.53125 -13.234375 C 2.851562 -13.210938 2.328125 -13.003906 1.953125 -12.609375 C 1.578125 -12.222656 1.390625 -11.679688 1.390625 -10.984375 L 1.390625 -10.796875 L 1.15625 -10.796875 L 1.15625 -14.53125 C 1.34375 -14.445312 1.707031 -14.363281 2.25 -14.28125 C 2.789062 -14.207031 3.28125 -14.171875 3.71875 -14.171875 L 10.65625 -14.171875 C 11.113281 -14.171875 11.597656 -14.203125 12.109375 -14.265625 C 12.617188 -14.328125 12.941406 -14.390625 13.078125 -14.453125 L 13.078125 -14.265625 L 5.421875 -0.921875 L 9.5 -0.921875 C 11.59375 -0.953125 13 -2.09375 13.71875 -4.34375 L 13.984375 -4.34375 L 12.9375 0 Z M 0.828125 0 "/></g></g></g><g fill="#2a2829" fill-opacity="1"><g transform="translate(225.219405, 38.391449)"><g><path d="M 0.796875 -0.234375 L 1.078125 -0.234375 C 1.460938 -0.234375 1.785156 -0.351562 2.046875 -0.59375 C 2.316406 -0.84375 2.453125 -1.140625 2.453125 -1.484375 L 2.453125 -12.65625 C 2.453125 -13.007812 2.316406 -13.304688 2.046875 -13.546875 C 1.785156 -13.785156 1.460938 -13.90625 1.078125 -13.90625 L 0.796875 -13.90625 L 0.796875 -14.140625 L 7.5 -14.140625 L 7.5 -13.90625 L 7.21875 -13.90625 C 6.851562 -13.90625 6.535156 -13.785156 6.265625 -13.546875 C 6.003906 -13.316406 5.863281 -13.03125 5.84375 -12.6875 L 5.84375 -1.484375 C 5.863281 -1.117188 6.003906 -0.816406 6.265625 -0.578125 C 6.535156 -0.347656 6.851562 -0.234375 7.21875 -0.234375 L 7.5 -0.234375 L 7.5 0 L 0.796875 0 Z M 0.796875 -0.234375 "/></g></g></g><g fill="#2a2829" fill-opacity="1"><g transform="translate(233.519046, 38.391449)"><g><path d="M 1.078125 -1.9375 C 1.078125 -2.957031 1.304688 -3.828125 1.765625 -4.546875 L 1.953125 -4.546875 C 1.941406 -4.441406 1.9375 -4.34375 1.9375 -4.25 C 1.9375 -3.289062 2.273438 -2.445312 2.953125 -1.71875 C 3.640625 -1 4.597656 -0.640625 5.828125 -0.640625 C 6.703125 -0.640625 7.378906 -0.84375 7.859375 -1.25 C 8.335938 -1.65625 8.578125 -2.109375 8.578125 -2.609375 C 8.578125 -3.117188 8.4375 -3.523438 8.15625 -3.828125 C 7.882812 -4.140625 7.4375 -4.5 6.8125 -4.90625 L 3.46875 -7.03125 C 2.050781 -7.90625 1.34375 -9.035156 1.34375 -10.421875 C 1.34375 -10.566406 1.351562 -10.71875 1.375 -10.875 C 1.46875 -11.988281 1.894531 -12.863281 2.65625 -13.5 C 3.425781 -14.132812 4.332031 -14.453125 5.375 -14.453125 C 6.425781 -14.453125 7.535156 -14.378906 8.703125 -14.234375 L 9.96875 -14.234375 L 9.640625 -11.125 L 9.4375 -11.125 C 9.4375 -11.863281 9.179688 -12.445312 8.671875 -12.875 C 8.160156 -13.300781 7.484375 -13.515625 6.640625 -13.515625 C 5.796875 -13.515625 5.128906 -13.335938 4.640625 -12.984375 C 4.148438 -12.628906 3.90625 -12.160156 3.90625 -11.578125 C 3.90625 -11.109375 4.144531 -10.695312 4.625 -10.34375 C 4.8125 -10.207031 5.085938 -10.03125 5.453125 -9.8125 L 9.203125 -7.5 C 10.484375 -6.707031 11.125 -5.625 11.125 -4.25 C 11.125 -2.78125 10.609375 -1.648438 9.578125 -0.859375 C 8.554688 -0.078125 7.226562 0.3125 5.59375 0.3125 C 4.582031 0.3125 3.691406 0.191406 2.921875 -0.046875 C 2.148438 -0.285156 1.582031 -0.582031 1.21875 -0.9375 C 1.125 -1.226562 1.078125 -1.5625 1.078125 -1.9375 Z M 1.078125 -1.9375 "/></g></g></g><g fill="#2a2829" fill-opacity="1"><g transform="translate(245.63839, 38.391449)"><g><path d="M 0.828125 0 L 0.828125 -0.1875 L 8.578125 -13.234375 L 3.53125 -13.234375 C 2.851562 -13.210938 2.328125 -13.003906 1.953125 -12.609375 C 1.578125 -12.222656 1.390625 -11.679688 1.390625 -10.984375 L 1.390625 -10.796875 L 1.15625 -10.796875 L 1.15625 -14.53125 C 1.34375 -14.445312 1.707031 -14.363281 2.25 -14.28125 C 2.789062 -14.207031 3.28125 -14.171875 3.71875 -14.171875 L 10.65625 -14.171875 C 11.113281 -14.171875 11.597656 -14.203125 12.109375 -14.265625 C 12.617188 -14.328125 12.941406 -14.390625 13.078125 -14.453125 L 13.078125 -14.265625 L 5.421875 -0.921875 L 9.5 -0.921875 C 11.59375 -0.953125 13 -2.09375 13.71875 -4.34375 L 13.984375 -4.34375 L 12.9375 0 Z M 0.828125 0 "/></g></g></g></svg>